<svg xmlns="http://www.w3.org/2000/svg" viewBox="0 0 144.15 42.99"><defs><style>.cls-1{fill:#cadcc9;}.cls-2{fill:#0d545b;}.cls-3{fill:#eb665e;}.cls-4{fill:none;}.cls-5{fill:#595757;}</style></defs><title>アセット 2</title><g id="レイヤー_2" data-name="レイヤー 2"><g id="レイヤー_1-2" data-name="レイヤー 1"><polygon class="cls-1" points="0 9.78 5.05 12.14 5.05 24.18 0 21.82 0 9.78"/><polygon class="cls-1" points="7.63 13.33 12.68 15.69 12.68 27.73 7.63 25.36 7.63 13.33"/><polygon class="cls-1" points="15.58 16.77 21.93 19.73 21.93 42.99 15.58 40.02 15.58 16.77"/><polygon class="cls-2" points="37.4 36.43 43.74 33.47 43.74 10.21 37.4 13.18 37.4 36.43"/><polygon class="cls-2" points="22.46 31.81 27.51 29.49 27.51 17.41 22.46 19.73 22.46 31.81"/><polygon class="cls-2" points="30.2 28.27 35.36 25.85 35.36 13.86 30.2 16.28 30.2 28.27"/><polygon class="cls-3" points="26.57 2.38 21.63 0.1 10.62 5.04 15.56 7.32 26.57 2.38"/><polygon class="cls-3" points="34.55 5.84 29.61 3.56 18.59 8.5 23.54 10.78 34.55 5.84"/><polygon class="cls-3" points="43.39 9.88 37.02 6.93 15.87 16.41 22.24 19.36 43.39 9.88"/><rect class="cls-4" width="43.74" height="42.99"/><path class="cls-5" d="M53.05,15.75a.51.51,0,1,1,0-1h7a.47.47,0,0,1,.49.5.48.48,0,0,1-.49.51Z"/><path class="cls-5" d="M76.67,13.05c0-.23.17-.32.36-.32s.43.12.43.33v.06c0,1.17-.47,1.31-1.31,1.31s-1-.39-1-1.17c0-.32,0-.67,0-.93s-.2-.26-.35-.26-.45,0-.45.28a2.88,2.88,0,0,1-.66,2.16.49.49,0,0,1-.36.17.51.51,0,0,1-.36-.15v0c0,.22-.14.31-.41.34,0,.81,0,1.57,0,1.87s0,.87,0,1.15v0a1,1,0,0,1-1.15,1.12c-.34,0-.74,0-.74-.44a.4.4,0,0,1,.36-.43h.05a2.5,2.5,0,0,0,.35,0c.22,0,.35-.09.36-.49s0-1.61,0-2.73l-.41.06,0,2.18a.32.32,0,0,1-.64,0l0-2.1-.36,0A8.51,8.51,0,0,1,69.83,19a.47.47,0,0,1-.41.26.4.4,0,0,1-.43-.37.35.35,0,0,1,.06-.18,7.41,7.41,0,0,0,.67-3.4l-.22,0h0a.36.36,0,0,1-.38-.36.36.36,0,0,1,.38-.37h.28c0-.65,0-1.25,0-1.75v0c0-.46.21-.73.77-.77h.23c0-.19.09-.33.16-.71a.38.38,0,0,1,.4-.25c.23,0,.48.13.48.34a3.93,3.93,0,0,1-.2.62h.3a.74.74,0,0,1,.77.81v1.44h.07a.36.36,0,0,1,.22.07v-.05A.35.35,0,0,1,73,14a1.69,1.69,0,0,0,.51-1.46c0-.14,0-.29,0-.45v0c0-.69.69-.7,1.06-.7,1.3,0,1.45,0,1.45,1,0,.31,0,.61,0,.88v.14c0,.18.07.29.22.29.34,0,.44,0,.44-.57v-.08Zm-4.83-.12c0-.26-.23-.27-.63-.27-.62,0-.73,0-.73.27,0,.46,0,1,0,1.56l1.36-.14C71.85,13.77,71.85,13.26,71.84,12.93ZM71.05,14a1.79,1.79,0,0,0-.41-.44.26.26,0,0,1-.09-.18.36.36,0,0,1,.36-.31c.18,0,.74.41.74.69a.38.38,0,0,1-.37.37A.26.26,0,0,1,71.05,14Zm1.75,5.34a.41.41,0,0,1-.44-.4.39.39,0,0,1,.3-.38,5,5,0,0,0,1.67-.95,3.35,3.35,0,0,1-.88-1.47.38.38,0,0,1,.37-.37.39.39,0,0,1,.36.25,3.81,3.81,0,0,0,.7,1,3.32,3.32,0,0,0,.7-1.39c0-.09-.06-.15-.21-.15h-.31l-1.6,0h0a.35.35,0,1,1,0-.7h2.31c.47,0,.81.24.81.66a4.53,4.53,0,0,1-1.08,2.11,5.16,5.16,0,0,0,1.62.83.42.42,0,0,1,.32.4.47.47,0,0,1-.49.46,5,5,0,0,1-2-1.11A4.55,4.55,0,0,1,72.8,19.32Z"/><path class="cls-5" d="M88.26,18.91a.39.39,0,0,1-.44.38.42.42,0,0,1-.47-.38h0l.05-3a2.71,2.71,0,0,1-1.14.67.42.42,0,0,1-.2-.81,5.29,5.29,0,0,0,2.32-2.45c0-.09-.14-.1-.2-.1H88c-.53,0-.93,0-1.5,0h0a.4.4,0,1,1,0-.8l.86,0v-.92a.46.46,0,0,1,.91,0v.91h.31c.54,0,.8.27.8.63a5,5,0,0,1-1.15,2c0,1.43,0,3.81,0,3.81Zm1-2.62a2.36,2.36,0,0,0-.72-.64.26.26,0,0,1-.15-.23.46.46,0,0,1,.44-.42C89,15,90,15.51,90,16a.49.49,0,0,1-.46.49A.33.33,0,0,1,89.25,16.29Zm-.14,2.59a.42.42,0,1,1,0-.84h1.83V14.82h-1.2a.42.42,0,1,1,0-.84h1.21V11.68a.44.44,0,0,1,.48-.42.43.43,0,0,1,.46.42V14l1.35,0h0a.42.42,0,1,1,0,.84H91.86v3.23h1.8a.41.41,0,0,1,.44.42.4.4,0,0,1-.44.42Z"/><path class="cls-5" d="M109.22,19c-.81,0-1.67,0-2.52,0s-1.71,0-2.54,0-1.21-.43-1.23-1.12,0-1.53,0-2.39c0-1.05,0-2.13,0-3a1,1,0,0,1,1.16-1c.8,0,1.65,0,2.53,0s1.75,0,2.62,0a1,1,0,0,1,1.13,1.05c0,.95,0,2,0,3,0,.83,0,1.64,0,2.34A1.14,1.14,0,0,1,109.22,19Zm.3-3.82c0-.8,0-1.59,0-2.31,0-.53-.2-.62-.66-.63l-2.21,0-2.15,0c-.52,0-.67.16-.68.63,0,.75,0,1.58,0,2.39s0,1.59,0,2.29c0,.52.2.62.78.63l2,0,2.2,0c.52,0,.67-.26.69-.66C109.51,16.76,109.52,16,109.52,15.16Zm-2.34-.8h-2.63a.38.38,0,1,1,0-.75h2.62V12.9a.39.39,0,0,1,.42-.37.38.38,0,0,1,.42.37v.71h.81a.38.38,0,1,1,0,.75H108v2.2c0,.5-.34,1.15-1.41,1.15-.45,0-1,0-1-.51a.4.4,0,0,1,.42-.41h.12a2.67,2.67,0,0,0,.52.07c.31,0,.53-.11.53-.49ZM105.84,16a2.45,2.45,0,0,0-.83-.65.33.33,0,0,1-.2-.29.42.42,0,0,1,.42-.39c.19,0,1.34.5,1.34,1a.46.46,0,0,1-.43.47A.38.38,0,0,1,105.84,16Z"/><path class="cls-5" d="M120.5,14.85a3.53,3.53,0,0,0-1-.48.32.32,0,0,1-.24-.31.49.49,0,0,1,.46-.46c.14,0,1.52.2,1.52.83a.5.5,0,0,1-.46.51A.48.48,0,0,1,120.5,14.85Zm-.57,4.27a.49.49,0,0,1-.49-.47.43.43,0,0,1,.12-.3,9.48,9.48,0,0,0,1.34-2.2.4.4,0,0,1,.38-.24.43.43,0,0,1,.45.42,8.66,8.66,0,0,1-1.37,2.56A.54.54,0,0,1,119.93,19.12Zm1-6.28a3.27,3.27,0,0,0-.89-.64.33.33,0,0,1-.2-.28.49.49,0,0,1,.5-.45c.22,0,1.4.49,1.4,1a.52.52,0,0,1-.49.5A.42.42,0,0,1,121,12.84Zm3.58,2.78a18.5,18.5,0,0,1-.83,2.28c.7-.09,1.4-.21,2-.33a8.29,8.29,0,0,0-.62-.71.46.46,0,0,1-.13-.3.41.41,0,0,1,.43-.38.51.51,0,0,1,.35.16,5.06,5.06,0,0,1,1.56,2.21.53.53,0,0,1-.51.52.44.44,0,0,1-.41-.32,4.37,4.37,0,0,0-.23-.49,30.24,30.24,0,0,1-4.31.7.43.43,0,0,1-.41-.47.4.4,0,0,1,.37-.44l1-.06a15.51,15.51,0,0,0,.75-2.37H122a.4.4,0,0,1-.41-.4.39.39,0,0,1,.41-.4h1.94V13.56H122.5a.41.41,0,0,1-.44-.41.41.41,0,0,1,.44-.4h1.41V11.71a.42.42,0,0,1,.46-.41.42.42,0,0,1,.46.41v1.06h1.61a.41.41,0,1,1,0,.81h-1.62v1.27H127a.4.4,0,1,1,0,.8Z"/><path class="cls-5" d="M140.38,13.17a.15.15,0,0,1,0,.07,5.89,5.89,0,0,0,3.4,4.82.48.48,0,0,1,.36.46.58.58,0,0,1-.61.56c-.79,0-2.75-1.68-3.55-3.8a6.23,6.23,0,0,1-3.34,3.86.55.55,0,0,1-.27.06.53.53,0,0,1-.54-.51.5.5,0,0,1,.34-.45,5.69,5.69,0,0,0,3.25-5.36c0-.28,0-.59,0-.87v0a.52.52,0,0,1,1,0c0,.32,0,.72,0,1.12Z"/><path class="cls-5" d="M55,26.82a3.41,3.41,0,0,0-.75-1c-.42-.36.19-1,.7-.56a4.72,4.72,0,0,1,.92,1.1.5.5,0,0,1-.18.69A.48.48,0,0,1,55,26.82Zm0,2.78a7.05,7.05,0,0,0,3.86-4.08,1.84,1.84,0,0,0,.1-.68.55.55,0,0,1,1.1,0,2.3,2.3,0,0,1-.24,1,8.36,8.36,0,0,1-4.32,4.56C54.74,30.83,54.41,29.87,55,29.6Zm1.68-3.45a3.42,3.42,0,0,0-.59-1.1c-.38-.42.32-1,.77-.46a4.88,4.88,0,0,1,.75,1.22.48.48,0,0,1-.28.66A.48.48,0,0,1,56.69,26.15Z"/><path class="cls-5" d="M75.47,30.57c-.79.31-1.06-.61-.44-.85a3.59,3.59,0,0,0,2.49-3.24c-.69.05-1.34.14-1.81.18-.29,0-.65.08-1,.09a.46.46,0,1,1,0-.92c.29,0,.64,0,.92,0,.43,0,1.11-.12,1.81-.17a8.15,8.15,0,0,0,0-.88,1.58,1.58,0,0,0-.16-.63c-.27-.53.64-1,1-.31a2.5,2.5,0,0,1,.14.83c0,.42,0,.64,0,.92l.47,0c.56,0,1.16-.06,1.7-.08s.63.28.59.54-.3.47-.72.45c-.59,0-1.1,0-1.64,0h-.39A4.51,4.51,0,0,1,75.47,30.57Z"/><path class="cls-5" d="M95.92,27.57c-.64.43-1.19-.41-.54-.8a6.85,6.85,0,0,0,2-2.15,2.89,2.89,0,0,0,.36-.76c.17-.63,1.1-.46,1,.15a1.81,1.81,0,0,1-.14.41c.44-.07.93-.18,1.34-.21.65,0,1.23.42.87,1-1.49,2.56-2.84,4.35-5.35,5.32-.79.31-1.15-.64-.37-.9a8.57,8.57,0,0,0,4.55-4.34c.09-.18,0-.22-.13-.22-.37,0-1.12.17-1.49.23A9.19,9.19,0,0,1,95.92,27.57ZM100.6,24c-.46-.2-.1-.75.33-.59a3,3,0,0,1,.9.55c.37.38-.17.95-.48.59A3,3,0,0,0,100.6,24Zm.84-.79c-.48-.19-.14-.74.29-.6a2.73,2.73,0,0,1,.93.53c.37.37-.15.93-.46.59A3.3,3.3,0,0,0,101.44,23.16Z"/><path class="cls-5" d="M120.66,29.22l-.67,0c-.42,0-2.38.25-2.7.29a5.09,5.09,0,0,1-.87.06.47.47,0,1,1,0-.94c.23,0,.46,0,.71,0s2-.26,2.68-.32c.15-.82.38-1.88.45-2.23s-.06-.31-.32-.28c-.45.07-2,.29-2.31.36a8.44,8.44,0,0,1-1.09.12.48.48,0,1,1,0-1c.32,0,.61,0,.94-.05s1.89-.24,2.23-.28a5.42,5.42,0,0,1,.9-.13c.88,0,1,.66.87,1a15.74,15.74,0,0,0-.64,2.4C121.39,28.37,121.59,29.16,120.66,29.22Z"/><path class="cls-5" d="M139.29,30.11a.63.63,0,0,1-.5.71c-.26,0-.53-.15-.51-.57.06-1.51.07-4.43,0-5.77a3.81,3.81,0,0,0-.09-.78c-.16-.66.9-.79,1-.15a3.78,3.78,0,0,1,0,.82c0,.38,0,.91,0,1.53h.16a4.19,4.19,0,0,1,2.19.85c.44.47-.2,1.21-.69.76a3.72,3.72,0,0,0-1.66-.7C139.25,28,139.27,29.29,139.29,30.11Z"/></g></g></svg>